<mxfile host="app.diagrams.net" modified="2022-11-07T11:01:13.537Z" agent="5.0 (Macintosh; Intel Mac OS X 10_15_7) AppleWebKit/605.1.15 (KHTML, like Gecko) Version/14.1.1 Safari/605.1.15" etag="R2bTFPkJzgIWBidDENvk" version="20.5.3" type="github">
  <diagram id="6F3GCIPp8aP25Zk1S5nZ" name="Page-1">
    <mxGraphModel dx="2493" dy="2114" grid="0" gridSize="10" guides="1" tooltips="1" connect="1" arrows="1" fold="1" page="1" pageScale="1" pageWidth="827" pageHeight="1169" background="#ffffff" math="0" shadow="0">
      <root>
        <mxCell id="0" />
        <mxCell id="1" parent="0" />
        <mxCell id="kZUgTFjrioCF8kD8ZjkX-50" style="edgeStyle=orthogonalEdgeStyle;rounded=0;orthogonalLoop=1;jettySize=auto;html=1;" parent="1" source="kZUgTFjrioCF8kD8ZjkX-1" edge="1">
          <mxGeometry relative="1" as="geometry">
            <mxPoint x="25" as="targetPoint" />
          </mxGeometry>
        </mxCell>
        <mxCell id="kZUgTFjrioCF8kD8ZjkX-1" value="User" style="sketch=0;outlineConnect=0;gradientColor=none;fontColor=#545B64;strokeColor=none;fillColor=#879196;dashed=0;verticalLabelPosition=bottom;verticalAlign=top;align=center;html=1;fontSize=12;fontStyle=0;aspect=fixed;shape=mxgraph.aws4.illustration_desktop;pointerEvents=1" parent="1" vertex="1">
          <mxGeometry x="-7.9700000000000015" y="-140" width="65.94" height="60" as="geometry" />
        </mxCell>
        <mxCell id="kZUgTFjrioCF8kD8ZjkX-7" style="edgeStyle=orthogonalEdgeStyle;rounded=0;orthogonalLoop=1;jettySize=auto;html=1;entryX=0.633;entryY=0.017;entryDx=0;entryDy=0;entryPerimeter=0;exitX=0;exitY=0.5;exitDx=0;exitDy=0;" parent="1" source="kZUgTFjrioCF8kD8ZjkX-25" edge="1">
          <mxGeometry relative="1" as="geometry">
            <mxPoint x="-50" y="45" as="sourcePoint" />
            <mxPoint x="-184.03999999999996" y="126.51999999999998" as="targetPoint" />
            <Array as="points">
              <mxPoint x="-184" y="15" />
            </Array>
          </mxGeometry>
        </mxCell>
        <mxCell id="kZUgTFjrioCF8kD8ZjkX-8" value="GET - api/search/nearby" style="edgeLabel;align=center;verticalAlign=middle;resizable=0;points=[];labelBorderColor=none;fontFamily=Courier New;html=1;" parent="kZUgTFjrioCF8kD8ZjkX-7" vertex="1" connectable="0">
          <mxGeometry x="0.4584" y="1" relative="1" as="geometry">
            <mxPoint x="-3" y="24" as="offset" />
          </mxGeometry>
        </mxCell>
        <mxCell id="kZUgTFjrioCF8kD8ZjkX-17" value="bu_id : Business obj" style="text;html=1;strokeColor=none;fillColor=none;align=left;verticalAlign=middle;whiteSpace=wrap;rounded=0;" parent="1" vertex="1">
          <mxGeometry x="-70" y="360" width="110" height="30" as="geometry" />
        </mxCell>
        <mxCell id="kZUgTFjrioCF8kD8ZjkX-18" value="geo_hash : List&amp;lt;Business&amp;gt;" style="text;html=1;strokeColor=none;fillColor=none;align=left;verticalAlign=middle;whiteSpace=wrap;rounded=0;" parent="1" vertex="1">
          <mxGeometry x="-367.5" y="370" width="150" height="30" as="geometry" />
        </mxCell>
        <mxCell id="kZUgTFjrioCF8kD8ZjkX-45" style="edgeStyle=orthogonalEdgeStyle;rounded=0;orthogonalLoop=1;jettySize=auto;html=1;exitX=1;exitY=0.5;exitDx=0;exitDy=0;" parent="1" source="kZUgTFjrioCF8kD8ZjkX-25" edge="1">
          <mxGeometry relative="1" as="geometry">
            <mxPoint x="220" y="120" as="targetPoint" />
          </mxGeometry>
        </mxCell>
        <mxCell id="kZUgTFjrioCF8kD8ZjkX-25" value="LB" style="ellipse;whiteSpace=wrap;html=1;" parent="1" vertex="1">
          <mxGeometry width="50" height="30" as="geometry" />
        </mxCell>
        <mxCell id="kZUgTFjrioCF8kD8ZjkX-28" value="Geo Hash Cache" style="verticalLabelPosition=bottom;html=1;verticalAlign=top;align=center;strokeColor=none;fillColor=#00BEF2;shape=mxgraph.azure.azure_cache;" parent="1" vertex="1">
          <mxGeometry x="-345" y="300" width="45" height="50" as="geometry" />
        </mxCell>
        <mxCell id="kZUgTFjrioCF8kD8ZjkX-31" value="Business Info Cache" style="verticalLabelPosition=bottom;html=1;verticalAlign=top;align=center;strokeColor=none;fillColor=#00BEF2;shape=mxgraph.azure.azure_cache;" parent="1" vertex="1">
          <mxGeometry x="-37.5" y="290" width="45" height="50" as="geometry" />
        </mxCell>
        <mxCell id="kZUgTFjrioCF8kD8ZjkX-42" style="edgeStyle=orthogonalEdgeStyle;rounded=0;orthogonalLoop=1;jettySize=auto;html=1;exitX=0;exitY=0.5;exitDx=0;exitDy=0;entryX=0.5;entryY=0;entryDx=0;entryDy=0;entryPerimeter=0;" parent="1" source="kZUgTFjrioCF8kD8ZjkX-33" target="kZUgTFjrioCF8kD8ZjkX-28" edge="1">
          <mxGeometry relative="1" as="geometry" />
        </mxCell>
        <mxCell id="kZUgTFjrioCF8kD8ZjkX-33" value="" style="rounded=1;whiteSpace=wrap;html=1;" parent="1" vertex="1">
          <mxGeometry x="-259.97" y="130" width="147.5" height="40" as="geometry" />
        </mxCell>
        <mxCell id="kZUgTFjrioCF8kD8ZjkX-34" value="" style="rounded=1;whiteSpace=wrap;html=1;" parent="1" vertex="1">
          <mxGeometry x="-249.97" y="140" width="147.5" height="40" as="geometry" />
        </mxCell>
        <mxCell id="kZUgTFjrioCF8kD8ZjkX-43" style="edgeStyle=orthogonalEdgeStyle;rounded=0;orthogonalLoop=1;jettySize=auto;html=1;exitX=1;exitY=0.5;exitDx=0;exitDy=0;entryX=0.5;entryY=0;entryDx=0;entryDy=0;entryPerimeter=0;" parent="1" source="kZUgTFjrioCF8kD8ZjkX-35" target="kZUgTFjrioCF8kD8ZjkX-31" edge="1">
          <mxGeometry relative="1" as="geometry" />
        </mxCell>
        <mxCell id="kZUgTFjrioCF8kD8ZjkX-35" value="LBS&amp;nbsp;&lt;br&gt;(Location based service)" style="rounded=1;whiteSpace=wrap;html=1;" parent="1" vertex="1">
          <mxGeometry x="-239.97" y="150" width="147.5" height="40" as="geometry" />
        </mxCell>
        <mxCell id="kZUgTFjrioCF8kD8ZjkX-38" value="" style="rounded=1;whiteSpace=wrap;html=1;" parent="1" vertex="1">
          <mxGeometry x="150" y="125" width="140" height="40" as="geometry" />
        </mxCell>
        <mxCell id="kZUgTFjrioCF8kD8ZjkX-39" value="" style="rounded=1;whiteSpace=wrap;html=1;" parent="1" vertex="1">
          <mxGeometry x="160" y="135" width="140" height="40" as="geometry" />
        </mxCell>
        <mxCell id="kZUgTFjrioCF8kD8ZjkX-53" style="edgeStyle=orthogonalEdgeStyle;rounded=0;orthogonalLoop=1;jettySize=auto;html=1;exitX=0.5;exitY=1;exitDx=0;exitDy=0;fontFamily=Courier New;" parent="1" source="kZUgTFjrioCF8kD8ZjkX-40" target="kZUgTFjrioCF8kD8ZjkX-52" edge="1">
          <mxGeometry relative="1" as="geometry" />
        </mxCell>
        <mxCell id="kZUgTFjrioCF8kD8ZjkX-40" value="Write API Server" style="rounded=1;whiteSpace=wrap;html=1;arcSize=15;" parent="1" vertex="1">
          <mxGeometry x="170" y="145" width="140" height="40" as="geometry" />
        </mxCell>
        <mxCell id="kZUgTFjrioCF8kD8ZjkX-51" value="Business CRUD APIs" style="edgeLabel;align=center;verticalAlign=middle;resizable=0;points=[];labelBorderColor=none;fontFamily=Courier New;html=1;" parent="1" vertex="1" connectable="0">
          <mxGeometry x="229.99888085461066" y="60.000356685938186" as="geometry">
            <mxPoint x="-7" y="7" as="offset" />
          </mxGeometry>
        </mxCell>
        <mxCell id="kZUgTFjrioCF8kD8ZjkX-52" value="DB&amp;nbsp;" style="strokeWidth=2;html=1;shape=mxgraph.flowchart.database;whiteSpace=wrap;labelBorderColor=none;fontFamily=Courier New;align=center;" parent="1" vertex="1">
          <mxGeometry x="210" y="326" width="60" height="60" as="geometry" />
        </mxCell>
      </root>
    </mxGraphModel>
  </diagram>
</mxfile>
